<svg width="32" height="33" viewBox="0 0 32 33" fill="none" xmlns="http://www.w3.org/2000/svg">
<path d="M15.9984 25.0023C14.9984 25.0023 14.0484 24.4523 13.0984 23.3023L12.8984 23.0523L13.0484 22.7523C13.4984 21.8523 13.6484 20.9523 13.4984 20.0523L14.4984 19.9023C14.6484 20.9023 14.5484 21.9023 14.0984 22.9023C15.3984 24.3523 16.5984 24.3523 17.8984 22.9023C17.4484 21.9023 17.3484 20.9023 17.4984 19.9023L18.4984 20.0523C18.3484 20.9523 18.4984 21.8523 18.9484 22.7523L19.0984 23.0523L18.8984 23.3023C17.9484 24.4523 16.9984 25.0023 15.9984 25.0023Z" fill="#0205B7"/>
<path d="M24.5984 31.5023H7.39844L8.29844 25.3023C8.44844 24.3023 9.19844 23.4523 10.2484 23.2023L13.7984 22.4023L16.0484 26.8523L18.2984 22.4023L21.8484 23.2023C22.8484 23.4023 23.6484 24.2523 23.7984 25.3023L24.5984 31.5023ZM8.59844 30.5023H23.4484L22.7484 25.4523C22.6484 24.8523 22.1984 24.3523 21.5984 24.2023L18.8484 23.6023L15.9984 29.1023L13.2484 23.5523L10.4984 24.1523C9.89844 24.3023 9.44844 24.8023 9.34844 25.4023L8.59844 30.5023Z" fill="#0205B7"/>
<path d="M12 17.0023V16.0023C15.3 16.0023 16.55 13.8023 16.55 13.7523L17 12.9023L17.45 13.7523C17.45 13.7523 18.35 15.5023 20 15.5023V16.5023C18.5 16.5023 17.5 15.5523 17 14.9023C16.3 15.7023 14.75 17.0023 12 17.0023Z" fill="#0205B7"/>
<path d="M21.5492 24.2031C21.4992 24.1531 20.4992 22.0031 20.4992 19.5031C20.4992 19.2531 20.4992 19.0031 20.4992 18.7031C20.5492 16.7031 20.6492 13.3531 18.9492 11.6031C18.2492 10.8531 17.2492 10.5031 15.9492 10.5031C14.6492 10.5031 13.6992 10.8531 12.9492 11.6031C11.2992 13.3031 11.3492 16.7031 11.3992 18.7031V19.5031C11.3992 22.0031 10.3992 24.1531 10.3492 24.2031L9.44922 23.7531C9.44922 23.7531 10.3992 21.7531 10.3992 19.4531C10.3992 19.2031 10.3992 18.9531 10.3992 18.6531C10.3492 16.5031 10.2492 12.8531 12.1992 10.8531C13.0992 9.90313 14.3492 9.45312 15.8992 9.45312C17.4492 9.45312 18.6992 9.90313 19.5992 10.8531C21.5492 12.8531 21.4992 16.5031 21.3992 18.6531V19.4531C21.3992 21.7531 22.3492 23.7031 22.3492 23.7531L21.5492 24.2031Z" fill="#0205B7"/>
<path d="M18.5 15.5V16.5C18.5 16.55 18.45 20.5 16 20.5C13.55 20.5 13.5 16.55 13.5 16.5V16.35C13.15 16.45 12.8 16.5 12.5 16.5C12.5 18.25 13.25 21.5 16 21.5C18.75 21.5 19.5 18.25 19.5 16.5V15.85C19.1 15.75 18.8 15.65 18.5 15.5Z" fill="#0205B7"/>
<path d="M9.49844 16.0516C9.59844 14.6016 9.84844 13.1016 10.4984 11.7516V9.50156H7.84844L15.9984 2.65156L24.1484 9.50156H21.4984V11.7516C22.1484 13.1016 22.3984 14.6516 22.4984 16.0516V10.5016H26.8484L15.9984 1.35156L5.14844 10.5016H9.49844V16.0516Z" fill="#0205B7"/>
<path d="M24.5 11.3008L23.5 12.2508V13.6008L24.5 12.7008L28.7 16.5008H27V30.5008H25.45L25.6 31.5008H28V17.5008H31.3L24.5 11.3008Z" fill="#0205B7"/>
<path d="M6.39922 31.5008L6.54922 30.5008H4.99922V16.5008H3.29922L7.49922 12.7008L8.49922 13.6008V12.2508L7.49922 11.3008L0.699219 17.5008H3.99922V31.5008H6.39922Z" fill="#0205B7"/>
</svg>
