<svg width="24" height="25" viewBox="0 0 24 25" fill="none" xmlns="http://www.w3.org/2000/svg">
<path d="M11.7622 1.38672C10.6419 1.52688 9.63875 2.82344 9.63875 4.52688C9.63875 5.46016 9.9575 6.28047 10.4263 6.85234L10.9981 7.53203L10.1216 7.69609C9.51219 7.81328 9.06219 8.14141 8.6825 8.67109C8.28406 9.21016 7.98875 9.93203 7.78719 10.7898C7.41219 12.3227 7.32313 14.1977 7.32313 15.8617H9.36688L9.91531 23.3852C11.3403 23.7133 12.8731 23.6898 14.2419 23.3852L14.7434 15.8617H16.6888C16.6888 14.1883 16.6653 12.2805 16.3231 10.7195C16.1403 9.88047 15.8544 9.13984 15.47 8.60547C15.0856 8.08516 14.6028 7.77109 13.9091 7.66328L13.0231 7.52266L13.5809 6.82422C14.045 6.25703 14.3497 5.43672 14.3497 4.52688C14.3497 2.72031 13.2247 1.38672 11.9919 1.38672H11.7622ZM18.5591 1.555V3.51672H16.5997V5.86797H18.5591V7.81797H20.8981V5.86797H22.8622V3.51672H20.8981V1.555H18.5591ZM2.48188 3.44875V4.88219H1.05078V6.59922H2.48188V8.02422H4.18813V6.59922H5.62156V4.88219H4.18813V3.44875H2.48188ZM4.34328 9.86172V10.8836H3.31766V12.1164H4.34328V13.143H5.57469V12.1164H6.59656V10.8836H5.57469V9.86172H4.34328ZM20.9872 12.7867V13.8086H19.9606V15.0414H20.9872V16.068H22.22V15.0414H23.2419V13.8086H22.22V12.7867H20.9872ZM6.57313 17.4461V18.1492H5.87V18.993H6.57313V19.6961H7.42156V18.993H8.12469V18.1492H7.42156V17.4461H6.57313ZM17.3544 19.593V20.2961H16.6513V21.1398H17.3544V21.843H18.1981V21.1398H18.9013V20.2961H18.1981V19.593H17.3544ZM2.31313 20.7414V21.4445H1.61V22.2883H2.31313V22.9914H3.15734V22.2883H3.86047V21.4445H3.15734V20.7414H2.31313Z" fill="#0205B7"/>
</svg>
