<svg width="36" height="37" viewBox="0 0 36 37" fill="none" xmlns="http://www.w3.org/2000/svg">
<path d="M18.326 21.711L16.9258 21.1808C17.3008 20.1908 17.9383 19.1168 18.9433 18L20.0585 19.0035C19.1713 19.9898 18.6328 20.901 18.326 21.711Z" fill="#0205B7"/>
<path fill-rule="evenodd" clip-rule="evenodd" d="M11.6722 5.75C7.52625 5.75 4.5 9.98 4.5 14.543C4.5 24.728 18 31.25 18 31.25C18 31.25 31.5 24.308 31.5 14.543C31.5 9.9815 28.4737 5.75 24.3285 5.75C21.4515 5.75 19.3162 7.64825 18 10.3408C16.6823 7.64825 14.5485 5.75 11.6722 5.75ZM12.75 19.2192C12.75 21.3245 15.1065 21.9965 16.8307 21.437C16.0072 23.8752 16.7723 25.775 17.4532 26.51L18.5535 25.49C18.2805 25.196 17.6535 23.9795 18.1718 22.1735C19.077 23.8512 23.25 24.0627 23.25 20.8985V12.5C21.0885 14.3293 18.7792 15.0522 16.8787 15.6478C14.4922 16.3948 12.75 16.94 12.75 19.2192Z" fill="#0205B7"/>
</svg>
