<svg width="58" height="58" viewBox="0 0 58 58" fill="none" xmlns="http://www.w3.org/2000/svg">
<path d="M22.9141 8.52734V17.0578" stroke="#A593E0" stroke-width="1.69922" stroke-miterlimit="10" stroke-linecap="round" stroke-linejoin="round"/>
<path d="M31.4453 8.52734V17.0578" stroke="#A593E0" stroke-width="1.69922" stroke-miterlimit="10" stroke-linecap="round" stroke-linejoin="round"/>
<path d="M14.3828 29.0016C14.3828 28.6616 14.3828 25.2607 14.3828 21.3242" stroke="#A593E0" stroke-width="1.69922" stroke-miterlimit="10" stroke-linecap="round" stroke-linejoin="round"/>
<path d="M39.9735 13.9297V29.0001C39.9735 23.6634 44.3013 19.6166 49.6367 19.6166C51.6703 19.6166 52.8589 21.9096 51.6874 23.5713L51.4724 23.8761C49.5126 26.6548 48.4617 29.9725 48.5038 33.3721C48.5038 34.2389 48.5038 35.1806 48.5038 35.8243C48.5038 47.6031 38.9531 57.1504 27.1777 57.1504C15.4 57.1504 5.85156 47.6021 5.85156 35.8243V34.2321" stroke="#A593E0" stroke-width="1.69922" stroke-miterlimit="10" stroke-linecap="round" stroke-linejoin="round"/>
<path d="M5.85156 30.253V21.3245C5.85156 18.9678 7.76126 17.0594 10.1167 17.0594C12.4722 17.0594 14.382 18.9691 14.382 21.3245C14.382 15.7138 14.382 9.01461 14.382 8.52886C14.382 6.17216 16.2917 4.26371 18.6471 4.26371C21.0027 4.26371 22.9124 6.1734 22.9124 8.52886V5.11683C22.9124 2.76012 24.8221 0.851562 27.1777 0.851562C29.5332 0.851562 31.4428 2.76126 31.4428 5.11683V8.52897C31.4428 6.17227 33.3525 4.26382 35.7081 4.26382C38.0637 4.26382 39.9732 6.17352 39.9732 8.52897V9.95065" stroke="#A593E0" stroke-width="1.69922" stroke-miterlimit="10" stroke-linecap="round" stroke-linejoin="round"/>
<path d="M35.0165 48.7867C39.3472 44.456 39.3472 37.4346 35.0165 33.1039C30.6858 28.7732 23.6643 28.7732 19.3336 33.1039C15.0029 37.4346 15.0029 44.456 19.3336 48.7867C23.6643 53.1174 30.6858 53.1174 35.0165 48.7867Z" stroke="#0205B7" stroke-width="1.69922" stroke-miterlimit="10" stroke-linecap="round" stroke-linejoin="round"/>
<path d="M27.1788 42.6505C28.1211 42.6505 28.8849 41.8867 28.8849 40.9444C28.8849 40.0021 28.1211 39.2383 27.1788 39.2383C26.2365 39.2383 25.4727 40.0021 25.4727 40.9444C25.4727 41.8867 26.2365 42.6505 27.1788 42.6505Z" fill="#0205B7" stroke="#0205B7" stroke-width="1.69922" stroke-miterlimit="10" stroke-linecap="round" stroke-linejoin="round"/>
<path d="M27.1797 33.2656V35.8248" stroke="#0205B7" stroke-width="1.69922" stroke-miterlimit="10" stroke-linecap="round" stroke-linejoin="round"/>
<path d="M22.6641 34.7344L24.1689 36.8044" stroke="#0205B7" stroke-width="1.69922" stroke-miterlimit="10" stroke-linecap="round" stroke-linejoin="round"/>
<path d="M19.875 38.5703L22.3091 39.3608" stroke="#0205B7" stroke-width="1.69922" stroke-miterlimit="10" stroke-linecap="round" stroke-linejoin="round"/>
<path d="M19.875 43.3178L22.3091 42.5273" stroke="#0205B7" stroke-width="1.69922" stroke-miterlimit="10" stroke-linecap="round" stroke-linejoin="round"/>
<path d="M22.6641 47.156L24.1689 45.0859" stroke="#0205B7" stroke-width="1.69922" stroke-miterlimit="10" stroke-linecap="round" stroke-linejoin="round"/>
<path d="M27.1797 48.6216V46.0625" stroke="#0205B7" stroke-width="1.69922" stroke-miterlimit="10" stroke-linecap="round" stroke-linejoin="round"/>
<path d="M31.6923 47.156L30.1875 45.0859" stroke="#0205B7" stroke-width="1.69922" stroke-miterlimit="10" stroke-linecap="round" stroke-linejoin="round"/>
<path d="M34.4808 43.3178L32.0469 42.5273" stroke="#0205B7" stroke-width="1.69922" stroke-miterlimit="10" stroke-linecap="round" stroke-linejoin="round"/>
<path d="M34.4808 38.5703L32.0469 39.3608" stroke="#0205B7" stroke-width="1.69922" stroke-miterlimit="10" stroke-linecap="round" stroke-linejoin="round"/>
<path d="M31.6923 34.7344L30.1875 36.8044" stroke="#0205B7" stroke-width="1.69922" stroke-miterlimit="10" stroke-linecap="round" stroke-linejoin="round"/>
<path d="M20.0742 23.4141V24.779" stroke="#0205B7" stroke-width="1.69922" stroke-miterlimit="10" stroke-linecap="round" stroke-linejoin="round"/>
<path d="M34.2812 23.4141V24.779" stroke="#0205B7" stroke-width="1.69922" stroke-miterlimit="10" stroke-linecap="round" stroke-linejoin="round"/>
<path d="M25.3047 24.7383C26.2958 25.8756 28.0578 25.8757 29.049 24.7383" stroke="#0205B7" stroke-width="1.69922" stroke-miterlimit="10" stroke-linecap="round" stroke-linejoin="round"/>
</svg>
