<svg width="24" height="25" viewBox="0 0 24 25" fill="none" xmlns="http://www.w3.org/2000/svg">
<path d="M5.25 2C5.05109 2 4.86032 2.07902 4.71967 2.21967C4.57902 2.36032 4.5 2.55109 4.5 2.75V22.25C4.5 22.4489 4.57902 22.6397 4.71967 22.7803C4.86032 22.921 5.05109 23 5.25 23H9.75V21.5H6V3.5H18V11H19.5V2.75C19.5 2.55109 19.421 2.36032 19.2803 2.21967C19.1397 2.07902 18.9489 2 18.75 2H5.25Z" fill="#0205B7"/>
<path d="M7.5 8H16.5V6.5H7.5V8ZM7.5 11H13.5V9.5H7.5V11Z" fill="#0205B7"/>
<path fill-rule="evenodd" clip-rule="evenodd" d="M15.75 12.5C14.3576 12.5 13.0223 13.0531 12.0377 14.0377C11.0531 15.0223 10.5 16.3576 10.5 17.75C10.5 19.1424 11.0531 20.4777 12.0377 21.4623C13.0223 22.4469 14.3576 23 15.75 23C17.1424 23 18.4777 22.4469 19.4623 21.4623C20.4469 20.4777 21 19.1424 21 17.75C21 16.3576 20.4469 15.0223 19.4623 14.0377C18.4777 13.0531 17.1424 12.5 15.75 12.5ZM15 14.75V17.75C14.9998 17.8486 15.0191 17.9462 15.0567 18.0373C15.0942 18.1284 15.1494 18.2112 15.219 18.281L17.469 20.531L18.531 19.469L16.5 17.4395V14.75H15Z" fill="#0205B7"/>
</svg>
