<svg width="49" height="49" viewBox="0 0 49 49" fill="none" xmlns="http://www.w3.org/2000/svg">
<g clip-path="url(#clip0_2021_167)">
<path d="M21.5332 34.4527H27.2754C32.8165 34.4527 37.3242 29.9449 37.3242 24.4039V21.5328C37.3242 20.7398 36.6816 20.0972 35.8887 20.0972H33.0176C31.8744 20.0972 30.742 20.2939 29.6728 20.6703C29.1831 19.4419 28.4425 18.2912 27.4496 17.2983L25.4193 15.2679C24.8589 14.7076 23.9501 14.7076 23.3893 15.2679L21.359 17.2983C20.3664 18.2912 19.6255 19.4419 19.1358 20.6703C18.0666 20.2939 16.9342 20.0972 15.791 20.0972H12.9199C12.127 20.0972 11.4844 20.7398 11.4844 21.5328V24.4039C11.4844 29.9449 15.9921 34.4527 21.5332 34.4527ZM33.0176 22.9683H34.4531V24.4039C34.4531 28.3266 31.2897 31.5225 27.3801 31.579L27.4496 31.5094C29.6425 29.3165 30.6078 26.3538 30.3457 23.4831C31.1906 23.1448 32.0987 22.9683 33.0176 22.9683ZM24.4043 18.3132L25.4193 19.3286C28.2178 22.1272 28.2178 26.6805 25.4193 29.4791L24.4043 30.4945L23.3893 29.4791C20.5908 26.6805 20.5908 22.1272 23.3893 19.3286L24.4043 18.3132ZM14.3555 22.9683H15.791C16.7099 22.9683 17.618 23.1448 18.4629 23.4831C18.2008 26.3538 19.166 29.3165 21.359 31.5094L21.4285 31.579C17.5189 31.5225 14.3555 28.3266 14.3555 24.4039V22.9683Z" fill="#A593E0"/>
<path d="M47.5719 21.3366C46.7364 20.5377 45.6459 20.0977 44.502 20.0977H43.0664V18.6621C43.0664 8.37178 34.6946 0 24.4043 0C14.114 0 5.74219 8.37178 5.74219 18.6621V20.0977H4.30664C1.93201 20.0977 0 22.0297 0 24.4043V30.1465C0 32.5211 1.93201 34.4531 4.30664 34.4531H7.17773C7.97065 34.4531 8.61328 33.8105 8.61328 33.0176C8.61328 31.4003 8.61328 20.0924 8.61328 18.6621C8.61328 9.95499 15.6972 2.87109 24.4043 2.87109C33.1114 2.87109 40.1953 9.95499 40.1953 18.6621V36.0801C40.1953 36.8715 39.5512 37.5156 38.7598 37.5156H18.6621C16.2875 37.5156 14.3555 39.4476 14.3555 41.8223C14.3555 44.1969 16.2875 46.1289 18.6621 46.1289H38.7598C39.5512 46.1289 40.1953 46.773 40.1953 47.5645C40.1953 48.3574 40.8379 49 41.6309 49C42.4238 49 43.0664 48.3574 43.0664 47.5645C43.0664 45.1898 41.1344 43.2578 38.7598 43.2578H18.6621C17.8707 43.2578 17.2266 42.6137 17.2266 41.8223C17.2266 41.0308 17.8707 40.3867 18.6621 40.3867H38.7598C41.1344 40.3867 43.0664 38.4547 43.0664 36.0801V34.4531H44.502C45.6459 34.4531 46.7364 34.0131 47.5719 33.2142C48.431 32.3929 48.9043 31.3035 48.9043 30.1465V24.4043C48.9043 23.2473 48.431 22.1579 47.5719 21.3366ZM5.74219 31.582H4.30664C3.51522 31.582 2.87109 30.9379 2.87109 30.1465V24.4043C2.87109 23.6129 3.51522 22.9688 4.30664 22.9688H5.74219V31.582ZM46.0332 30.1465C46.0332 30.9114 45.3177 31.582 44.502 31.582H43.0664V22.9688H44.502C45.3177 22.9688 46.0332 23.6394 46.0332 24.4043V30.1465Z" fill="#A593E0"/>
</g>
<defs>
<clipPath id="clip0_2021_167">
<rect width="49" height="49" fill="white"/>
</clipPath>
</defs>
</svg>
