<svg xmlns="http://www.w3.org/2000/svg" width="60" height="60" viewBox="0 0 60 60" fill="none">
<path d="M47.668 58.4863H13.6406V54.9631C13.6406 53.2941 14.9387 51.9961 16.6076 51.9961H44.701C46.3699 51.9961 47.668 53.2941 47.668 54.9631V58.4863Z" stroke="#0205B7" stroke-width="1.85435" stroke-miterlimit="10" stroke-linecap="round" stroke-linejoin="round"/>
<path d="M32.6451 34.6562H33.1087V51.9944H27.082V34.6562H27.4529" stroke="#0205B7" stroke-width="1.85435" stroke-miterlimit="10" stroke-linecap="round" stroke-linejoin="round"/>
<path d="M47.5707 1V17.3183C47.5707 26.9609 39.7824 34.8419 30.047 34.8419C20.4044 34.8419 12.5234 27.0536 12.5234 17.3183V1H20.0336V17.3183C20.0336 22.7886 24.484 27.2391 29.9543 27.2391C35.4247 27.2391 39.8751 22.7886 39.8751 17.3183V1H47.5707Z" stroke="#0205B7" stroke-width="1.85435" stroke-miterlimit="10" stroke-linecap="round" stroke-linejoin="round"/>
<path d="M7.42437 4.05859C5.38458 6.09838 5.38458 9.43621 7.42437 11.5687" stroke="#0205B7" stroke-width="1.85435" stroke-miterlimit="10" stroke-linecap="round" stroke-linejoin="round"/>
<path d="M4.36669 1C0.56527 4.80142 0.56527 10.8281 4.36669 14.6295" stroke="#0205B7" stroke-width="1.85435" stroke-miterlimit="10" stroke-linecap="round" stroke-linejoin="round"/>
<path d="M52.8594 4.05859C54.8992 6.09838 54.8992 9.43621 52.8594 11.5687" stroke="#0205B7" stroke-width="1.85435" stroke-miterlimit="10" stroke-linecap="round" stroke-linejoin="round"/>
<path d="M55.918 1C59.7194 4.80142 59.7194 10.8281 55.918 14.6295" stroke="#0205B7" stroke-width="1.85435" stroke-miterlimit="10" stroke-linecap="round" stroke-linejoin="round"/>
<path d="M47.5726 7.95312H40.0625" stroke="#0205B7" stroke-width="1.85435" stroke-miterlimit="10" stroke-linecap="round" stroke-linejoin="round"/>
<path d="M20.1273 7.95312H12.6172" stroke="#0205B7" stroke-width="1.85435" stroke-miterlimit="10" stroke-linecap="round" stroke-linejoin="round"/>
<path d="M24.6719 11.8495L28.0097 13.2403L27.3607 18.6179L35.6125 10.4588C34.3452 10.0605 33.6347 9.83715 32.3674 9.43886L32.9237 3.59766L24.6719 11.8495Z" fill="#A593E0" stroke="#0205B7" stroke-width="1.85435" stroke-miterlimit="10" stroke-linecap="round" stroke-linejoin="round"/>
<path d="M30.0508 27.332V34.8422" stroke="#0205B7" stroke-width="1.85435" stroke-miterlimit="10" stroke-linecap="round" stroke-linejoin="round"/>
</svg>
