<svg width="24" height="24" viewBox="0 0 24 24" fill="none" xmlns="http://www.w3.org/2000/svg">
<g clip-path="url(#clip0_2021_1260)">
<mask id="mask0_2021_1260" style="mask-type:alpha" maskUnits="userSpaceOnUse" x="0" y="0" width="24" height="24">
<rect width="24" height="24" fill="#D9D9D9"/>
</mask>
<g mask="url(#mask0_2021_1260)">
<path d="M19.9639 21.2034C17.8566 21.2034 15.7744 20.7442 13.7172 19.8259C11.6599 18.9075 9.78594 17.6051 8.09544 15.9186C6.40477 14.228 5.10035 12.353 4.18219 10.2939C3.26385 8.23471 2.80469 6.15146 2.80469 4.04413C2.80469 3.68829 2.9226 3.39146 3.15844 3.15363C3.39427 2.91579 3.6901 2.79688 4.04594 2.79688H8.08994C8.41494 2.79688 8.69302 2.89296 8.92419 3.08513C9.15535 3.27729 9.2996 3.52363 9.35694 3.82413L10.0009 7.19838C10.0501 7.52488 10.0428 7.80171 9.97894 8.02888C9.91494 8.25604 9.79235 8.45421 9.61119 8.62337L7.15019 11.0256C7.46769 11.5985 7.8436 12.1565 8.27794 12.6996C8.71244 13.2428 9.19669 13.773 9.73069 14.2904C10.2275 14.787 10.7394 15.2423 11.2662 15.6561C11.7929 16.07 12.345 16.4442 12.9227 16.7789L15.3144 14.4051C15.5083 14.2151 15.7459 14.0787 16.0274 13.9959C16.3089 13.9129 16.5963 13.896 16.8894 13.9451L20.1779 14.6274C20.4951 14.7179 20.7456 14.8715 20.9294 15.0884C21.1133 15.3052 21.2052 15.5639 21.2052 15.8644V19.9561C21.2052 20.312 21.0863 20.6088 20.8484 20.8466C20.6106 21.0845 20.3158 21.2034 19.9639 21.2034Z" fill="#1C1B1F"/>
</g>
</g>
<defs>
<clipPath id="clip0_2021_1260">
<rect width="24" height="24" fill="white"/>
</clipPath>
</defs>
</svg>
