<svg width="144" height="24" viewBox="0 0 144 24" fill="none" xmlns="http://www.w3.org/2000/svg">
<path d="M19 3C19.5304 3 20.0391 3.21071 20.4142 3.58579C20.7893 3.96086 21 4.46957 21 5V19C21 19.5304 20.7893 20.0391 20.4142 20.4142C20.0391 20.7893 19.5304 21 19 21H5C4.46957 21 3.96086 20.7893 3.58579 20.4142C3.21071 20.0391 3 19.5304 3 19V5C3 4.46957 3.21071 3.96086 3.58579 3.58579C3.96086 3.21071 4.46957 3 5 3H19ZM18.5 18.5V13.2C18.5 12.3354 18.1565 11.5062 17.5452 10.8948C16.9338 10.2835 16.1046 9.94 15.24 9.94C14.39 9.94 13.4 10.46 12.92 11.24V10.13H10.13V18.5H12.92V13.57C12.92 12.8 13.54 12.17 14.31 12.17C14.6813 12.17 15.0374 12.3175 15.2999 12.5801C15.5625 12.8426 15.71 13.1987 15.71 13.57V18.5H18.5ZM6.88 8.56C7.32556 8.56 7.75288 8.383 8.06794 8.06794C8.383 7.75288 8.56 7.32556 8.56 6.88C8.56 5.95 7.81 5.19 6.88 5.19C6.43178 5.19 6.00193 5.36805 5.68499 5.68499C5.36805 6.00193 5.19 6.43178 5.19 6.88C5.19 7.81 5.95 8.56 6.88 8.56ZM8.27 18.5V10.13H5.5V18.5H8.27Z" fill="black"/>
<path d="M52 2.03906C46.5 2.03906 42 6.52906 42 12.0591C42 17.0591 45.66 21.2091 50.44 21.9591V14.9591H47.9V12.0591H50.44V9.84906C50.44 7.33906 51.93 5.95906 54.22 5.95906C55.31 5.95906 56.45 6.14906 56.45 6.14906V8.61906H55.19C53.95 8.61906 53.56 9.38906 53.56 10.1791V12.0591H56.34L55.89 14.9591H53.56V21.9591C55.9164 21.5869 58.0622 20.3846 59.6099 18.5691C61.1576 16.7537 62.0054 14.4447 62 12.0591C62 6.52906 57.5 2.03906 52 2.03906Z" fill="black"/>
<path d="M93.9418 10.392L101.536 1.5H99.7363L93.1438 9.2205L87.8758 1.5H81.8008L89.7658 13.176L81.8008 22.5H83.6008L90.5638 14.346L96.1273 22.5H102.202L93.9418 10.392ZM91.4773 13.278L90.6703 12.1155L84.2488 2.865H87.0133L92.1943 10.3305L93.0013 11.493L99.7378 21.198H96.9733L91.4773 13.278Z" fill="black"/>
<path d="M122.5 12C122.5 7.522 122.5 5.282 123.891 3.891C125.282 2.5 127.521 2.5 132 2.5C136.478 2.5 138.718 2.5 140.109 3.891C141.5 5.282 141.5 7.521 141.5 12C141.5 16.478 141.5 18.718 140.109 20.109C138.718 21.5 136.479 21.5 132 21.5C127.522 21.5 125.282 21.5 123.891 20.109C122.5 18.718 122.5 16.479 122.5 12Z" stroke="black" stroke-width="1.5" stroke-linecap="round" stroke-linejoin="round"/>
<path d="M137.508 6.5H137.498M136.5 12C136.5 13.1935 136.026 14.3381 135.182 15.182C134.338 16.0259 133.193 16.5 132 16.5C130.807 16.5 129.662 16.0259 128.818 15.182C127.974 14.3381 127.5 13.1935 127.5 12C127.5 10.8065 127.974 9.66193 128.818 8.81802C129.662 7.97411 130.807 7.5 132 7.5C133.193 7.5 134.338 7.97411 135.182 8.81802C136.026 9.66193 136.5 10.8065 136.5 12Z" stroke="black" stroke-width="1.5" stroke-linecap="round" stroke-linejoin="round"/>
</svg>
